<?xml version="1.0" encoding="UTF-8" standalone="no"?>
<svg
   width="374.56201"
   height="270.79733"
   viewBox="0 0 374.56201 270.79733"
   version="1.1"
   id="svg3"
   xmlns:xlink="http://www.w3.org/1999/xlink"
   xmlns="http://www.w3.org/2000/svg"
   xmlns:svg="http://www.w3.org/2000/svg">
  <defs
     id="defs3">
    <linearGradient
       id="linearGradient3">
      <stop
         style="stop-color:#000000;stop-opacity:1;"
         offset="0"
         id="stop3" />
      <stop
         style="stop-color:#000000;stop-opacity:0;"
         offset="1"
         id="stop4" />
    </linearGradient>
    <radialGradient
       xlink:href="#linearGradient3"
       id="radialGradient28"
       gradientUnits="userSpaceOnUse"
       cx="512"
       cy="512"
       fx="512"
       fy="512"
       r="512" />
  </defs>
  <g
     id="g29"
     transform="translate(-421.84412,-379.45023)">
    <path
       id="path1"
       style="stroke:#000000;stroke-opacity:1"
       d="m 605.6543,379.99219 c -38.53922,0.85406 -74.8693,14.84008 -104.4043,40.76758 l -6.25,5.48046 -1.5,-3.62109 c -0.83,-1.99 -2.18906,-5.29008 -3.03906,-7.33008 -1.95,-4.72 -4.27008,-7.28906 -6.58008,-7.28906 -2.99,0 -8.48164,5.65023 -10.93164,11.24023 -3.05,7 -3.82938,20.27985 -1.60938,27.83985 0.86,2.94 1.41071,5.49922 1.22071,5.69922 h -0.002 l -0.002,0.002 c -0.24541,0.16424 -3.46648,-1.2068 -7.20703,-3.08203 -10.29,-5.14 -17.02992,-7.06867 -24.91992,-7.13867 -6.04,-0.05 -7.65961,0.32961 -11.09961,2.59961 -13.13,8.69 -7.03074,26.91968 12.0293,35.92968 3.3,1.56 7.95031,3.13024 10.32031,3.49024 2.38,0.36 4.32031,0.72984 4.32031,0.83984 0,0.11 -1.30068,3.77063 -2.89062,8.14063 -3.38003,9.28 -7.29438,34.12304 -8.23438,45.62304 0.50653,5.43425 0.9266,10.36083 2.43764,15.21677 -0.24566,-0.0646 2.4722,6.5781 2.81836,7.44921 l 2.11914,5.11133 -5.36914,5.81836 c -6.76,7.3 -10.90141,15.7107 -12.19141,24.7207 -1.33,9.3 -0.27881,15.80922 3.20117,19.69922 2.48001,2.78 2.96993,2.95055 5.16993,1.81055 1.34,-0.69 3.57898,-2.30961 4.95898,-3.59961 l 2.53125,-2.34961 3.47852,4.71875 c 4.2,5.69 7.68054,6.6007 11.31054,2.9707 2.99,-2.99 6.66016,-12.64906 6.66016,-17.53906 0,-3.06 0.62984,-4.21008 3.58984,-6.58008 3.14,-2.5 3.88938,-2.71039 5.85938,-1.65039 2.1,1.12 2.23125,1.70961 1.78125,8.09961 -1.52,21.26 9.71961,37.64976 21.59961,31.50976 4.17,-2.16 11.68898,-10.69898 14.70898,-16.70898 1.48,-2.96 2.82071,-5.52141 2.97071,-5.69141 0.15,-0.17 5.66953,0.83071 12.26953,2.22071 14.61,3.09 31.47,5.22968 48.5,6.17968 8.7,0.48 12.64031,1.06055 12.32031,1.81055 -3.54,8.31 -3.10938,12.72961 1.39062,14.59961 2.83,1.17 4.92063,1.05945 11.39063,-0.56055 2.6,-0.65 2.59937,-0.63875 2.35937,5.03125 -0.2,4.7 0.10977,5.94946 1.75977,7.18946 2.66,1.99 8.38961,1.20049 14.59961,-2.01954 2.68,-1.38999 6.47117,-3.79007 8.45117,-5.33007 4.31,-3.38 11.90906,-13.18961 14.78906,-19.09961 1.23,-2.51 2.93086,-4.45164 4.13086,-4.68164 22.29,-4.41 40.41891,-9.81864 54.87891,-16.38868 l 6.84961,-3.11132 4.32031,4.74023 c 3.44,3.76 4.46953,5.75047 5.01953,9.73047 1.13,8.13 4.2518,16.95086 6.8418,19.38086 8.05,7.57 15.25875,-5.91055 14.46875,-27.06055 -0.32,-8.65 -0.64055,-9.97015 -3.56055,-14.66015 -1.6775,-2.70688 -2.87254,-4.94099 -2.75586,-5.14454 l 0.002,-0.002 0.002,-0.002 v -0.002 -0.002 h 0.002 v -0.002 h 0.002 0.002 l 0.002,-0.002 0.002,-0.002 h 0.002 c 0.002,-1.4e-4 0.009,-10e-4 0.0117,-0.002 1.58,0 7.41968,4.77031 7.42968,6.07031 0,0.87 2.00922,5.67922 4.44922,10.69922 3.42,7.03 5.17063,9.48953 7.64063,10.76953 7.32,3.79 10.46015,-2.04973 9.66015,-17.92968 -0.66,-13.07002 -3.40046,-21.80938 -8.73046,-27.85938 l -3.99024,-4.53906 1.89063,-4.35156 c 1.04,-2.40001 2.46039,-6.94938 3.15039,-10.10938 0.88,-4.02 1.73961,-5.75906 2.84961,-5.78906 0.87,-0.03 3.38054,-0.68094 5.56054,-1.46094 3.42,-1.22 4.17907,-1.22 5.53907,0 4.35,3.94 12.63945,5.52984 17.43945,3.33984 3.18,-1.45 3.29047,-2.83984 0.23047,-2.83984 -3.91,0 -13.00969,-5.25039 -15.42969,-8.90039 -4.33,-6.54 -2.63016,-16.26953 4.33984,-24.76953 3.89,-4.75 3.49008,-5.14969 -2.66992,-2.67969 -7.84,3.14 -13.44031,15.1693 -11.07031,23.7793 1.27,4.58 0.84992,5.57031 -2.33008,5.57031 -2.19,0 -2.41,-0.5 -3,-6.75 -2.59,-27.54 -8.29031,-47.66914 -19.57031,-69.11914 -20.01,-38.06 -57.20945,-66.03031 -99.18945,-74.57031 -13.1675,-2.6775 -26.25907,-3.85305 -39.10547,-3.56836 z M 610.31055,387 c 31.53,0 63.70867,10.53953 88.63867,29.01953 28.86,21.4 49.45109,57.48047 55.62109,97.48047 0.77,4.95 1.40016,11.50055 1.41016,14.56055 0.02,4.95 -0.29102,5.78867 -2.79102,7.63867 -8.49,6.28 -29.44945,14.1207 -44.68945,16.7207 -9.68,1.65 -25.82,2.65075 -31.5,1.9707 -13.45,-1.62999 -25.12992,-7.0107 -31.41992,-14.4707 -4.02,-4.76 -7.21969,-12.05039 -9.17969,-20.90039 -1.69,-7.64 -5.86094,-24.77885 -6.96094,-28.62891 -0.54,-1.89999 -0.0792,-2.18101 4.55078,-2.79101 7.4,-0.99 15.18946,-4.75891 20.93946,-10.12891 C 661.24969,471.5607 664,465.97984 664,459.08984 664,448.33984 658.40984,444 644.58984,444 c -8.82,0 -20.50945,2.89945 -28.93945,7.18945 -2.11,1.07 -4.01117,1.78985 -4.20117,1.58985 -0.2,-0.2 0.30109,-2.28844 1.12109,-4.64844 2.53,-7.36 2.85922,-15.10094 0.94922,-22.71094 -2.65,-10.59 -5.72039,-15.77054 -10.40039,-17.56054 -3.81,-1.45002 -6.57937,1.18109 -9.60937,9.12109 -1.81,4.73 -4.32008,8.84039 -7.58008,12.40039 l -4.86914,5.33984 -8.09961,-2.35156 c -19.05,-5.52 -40.87047,-5.28867 -59.23047,0.61133 -8.37,2.69 -9.38094,2.81898 -11.46094,1.45898 -1.25,-0.82 -2.26953,-1.82023 -2.26953,-2.24023 0,-1.13 14.25023,-13.02836 22.24023,-18.56836 12.55,-8.7 39.00899,-20.28141 50.70899,-22.19141 1.95,-0.32 4.45078,-0.96968 5.55078,-1.42968 3,-1.28 21.34055,-3.00977 31.81055,-3.00977 z m -8.70117,28.9082 c 0.75886,-0.005 2.07351,1.47977 3.04101,3.79102 4.27,10.22 4.04031,20.97086 -0.67969,31.63086 -2.29,5.18 -1.83992,7.16922 2.08008,9.19922 2.63,1.35 3.35938,1.21976 10.85938,-1.99024 12.85,-5.5 20.55953,-7.53906 28.51953,-7.53906 6.26,0 7.51039,0.31055 9.40039,2.31055 2.71,2.89 2.80976,7.52851 0.25976,12.47851 -4.26,8.29 -13.55968,13.53055 -27.17968,15.31055 -4.63,0.61 -8.74039,1.42106 -9.15039,1.79101 -0.41,0.38 0.64031,3.96852 2.32031,7.97852 1.68,4 4.41078,13.66094 6.05078,21.46094 3.6,17.08 7.71961,26.51055 14.84961,34.06054 14.88,15.73001 42.52953,19.87874 76.51953,11.46876 11.27,-2.79 26.55984,-8.50954 32.08984,-12.01954 l 4.68946,-2.98046 -0.60938,3.82031 c -0.34,2.1 -2.21992,7.04976 -4.16992,11.00976 -7.81,15.81 -27.38086,30.46117 -55.38086,41.45117 -8.29,3.25 -37.15914,10.91946 -38.36914,10.18946 -0.41,-0.25 -0.75,-2.38024 -0.75,-4.74024 0,-4.49 -1.68016,-10.58984 -2.91016,-10.58984 -0.4,0 -1.52953,3.43086 -2.51953,7.63086 -3.58,15.16 -13.33,30.51961 -23.25,36.59961 -5.05,3.1 -9.30015,4.9 -9.41015,4 -0.23,-1.89 0.24039,-10.90125 0.65039,-12.28125 0.25,-0.86 -0.13008,-2.33859 -0.83008,-3.3086 -1.21,-1.64999 -1.59977,-1.61093 -6.75977,0.78907 -3.01,1.4 -6.71047,2.55054 -8.23047,2.56054 l -2.75976,0.01 5.44922,-10.84961 c 5.51,-11 8.57031,-20.32086 8.57031,-26.13086 0,-2.1 -0.43,-3.04953 -1.25,-2.76953 -1.32,0.43 -5.61945,8.5207 -9.68945,18.2207 l -2.42969,5.8086 -13.07031,-0.67969 c -50.64,-2.62 -86.1111,-12.49008 -110.8711,-30.83008 -21.80016,-16.16181 -24.32291,-37.80784 -23.90039,-49.23047 1.7,-45.41 26.20039,-81.69968 63.40039,-93.92968 7.47,-2.46 16.45977,-3.58961 28.50977,-3.59961 12.02,-0.01 17.65055,0.79945 29.06055,4.18945 6.82,2.03 7.47109,2.06055 10.62109,0.56055 1.85,-0.88 4.96969,-3.57071 6.92969,-5.97071 3.48,-4.24 9.68945,-15.60851 9.68945,-17.72851 0,-0.79078 0.23874,-1.14983 0.60938,-1.15235 z M 483.25,417.08398 c 0.55553,-0.005 1.02539,0.54852 1.40039,1.66602 2.04,6.11 6.59992,14.25906 9.66992,17.28906 l 3.58985,3.54102 -8.17969,5.45898 c -4.5,3 -8.51016,5.60125 -8.91016,5.78125 -0.4,0.17 -1.48062,-2.26967 -2.39062,-5.42969 -2.1,-7.20999 -1.53063,-17.11015 1.35937,-23.66015 1.36875,-3.08125 2.53506,-4.63897 3.46094,-4.64649 z m -44.29492,32.99219 c 1.08125,0.008 2.39492,0.0713 4.04492,0.17383 6.32,0.38 9.11,1.20023 17.75,5.24023 5.64,2.64 10.23094,5.30044 10.21094,5.90039 -0.02,0.61001 -1.10016,2.41954 -2.41016,4.01954 l -2.38086,2.91015 -4.83008,-3.09961 c -7.95,-5.09 -13.44929,-7.17117 -19.02929,-7.20117 -2.86,-0.01 -5.47055,0.43047 -5.81055,0.98047 -0.36,0.58 0.61984,1 2.33984,1 2.81,0 18.40039,7.2493 22.65039,10.5293 1.84,1.42 1.87071,1.74 0.47071,4.25 -1.79,3.21 -5.20071,3.72031 -11.97071,1.82031 -15.56,-4.38 -25.28023,-18.26891 -17.24023,-24.62891 1.815,-1.44 2.96133,-1.91843 6.20508,-1.89453 z m 203.20703,8.96485 c -3.40938,0.0407 -7.81914,0.8914 -11.43164,2.3789 -6.43,2.64 -18.73047,10.32922 -18.73047,11.69922 0,1.76 2.73008,0.79102 14.58008,-5.20898 7.74,-3.92 13.78008,-6.31039 16.83008,-6.65039 3.12,-0.35 4.29992,-0.82891 3.41992,-1.37891 -0.9375,-0.59625 -2.62235,-0.86428 -4.66797,-0.83984 z m -66.69141,18.52929 c -5.99,-0.01 -7.83,0.43901 -12.5,3.03907 -8.9,4.97998 -13.95093,14.00093 -13.96093,24.96093 -0.02,12.72 7.50023,22.68024 19.99023,26.49024 4.53,1.39 12.4,0.94031 16.5,-0.92969 6.22,-2.83 10.15933,-6.72164 13.10938,-12.93164 6.51999,-13.74 1.55156,-30.9593 -10.89844,-37.7793 -4.32,-2.36 -6.41024,-2.84961 -12.24024,-2.84961 z m -96.8164,4.4375 c -8.71159,0.41576 -15.66203,9.85891 -15.64453,22.44141 0,8.27 1.14953,13.01062 4.26953,17.64062 4.69,6.96 11.67148,9.54977 17.52148,6.50977 9.94,-5.18 14.11844,-20.71 9.14844,-34 -2.17,-5.81 -7.15875,-11.10922 -11.46875,-12.19922 -1.30125,-0.32625 -2.58166,-0.45197 -3.82617,-0.39258 z m 92.8457,1.00196 h 5.30078 c 5.95,-0.01 9.4599,1.48039 13.33984,5.65039 4.68003,5.05 6.2993,9.3007 6.2793,16.4707 -0.05,12.55 -7.55961,21.66984 -18.59961,22.58984 l -5.32031,0.44922 3.21094,-2.05078 c 9.41,-5.99 12.6689,-20.94847 7.1289,-32.72852 -2.2,-4.67998 -3.93984,-6.52054 -8.33984,-8.81054 z M 561.99023,492 c 4.59,0 6.76969,7.08961 3.17969,10.34961 -2.38,2.15 -4.45953,2.09031 -6.51953,-0.17969 -0.91,-1 -1.65039,-2.69928 -1.65039,-3.7793 C 557,495.59063 559.80023,492 561.99023,492 Z m -89.1875,0.0566 c 1.20846,-0.0115 2.4725,0.58656 3.54688,1.77344 2.07,2.29 2.10004,5.07922 0.0898,7.94922 -1.7,2.43 -3.01945,2.69062 -5.68945,1.14062 -2.06,-1.2 -2.43078,-7.8407 -0.55078,-9.7207 0.75687,-0.75688 1.66361,-1.13362 2.60351,-1.14258 z m 76.89063,48.21098 c -1.11656,0.009 -2.51125,1.19914 -5.59375,4.43164 -5.79,6.07 -11.04977,8.99016 -18.75977,10.41016 -10.22,1.88999 -20.77914,-2.12899 -28.11914,-10.70899 -3.51,-4.11 -4.18003,-4.4907 -6.08008,-3.4707 -1.18,0.63 -2.14062,1.60039 -2.14062,2.15039 0,3.44 7.45016,11.93953 13.16016,15.01953 11.16,6.01 23.85921,6.16945 35.44922,0.43945 4.71999,-2.33 8.70109,-5.22 11.37109,-8.25 4.3,-4.89 4.82906,-7.75992 1.78906,-9.66992 -0.3625,-0.2275 -0.70398,-0.35469 -1.07617,-0.35156 z M 752.91016,568 c 0.96,0 7.08984,8.78039 7.08984,10.15039 0,0.88 -7.30039,4.84961 -8.90039,4.84961 -0.55,0 -2.23028,-1.05937 -3.74023,-2.35938 l -2.75,-2.37109 3.70117,-4.30859 c 2.03,-2.38 3.68945,-4.69063 3.68945,-5.14063 0,-0.45 0.41016,-0.82031 0.91016,-0.82031 z m -296.92969,6 c 0.32,0 4.29937,3.66066 8.85937,8.14062 l 8.2793,8.13868 -3.55859,2.93164 c -2.5,2.06 -3.56055,3.74974 -3.56055,5.67968 0,3.63 -2.56039,12.12891 -4.40039,14.62891 -1.42,1.91 -1.51875,1.84992 -2.96875,-1.58008 -0.82,-1.95 -1.79992,-4.77 -2.16992,-6.25 -0.38,-1.49 -1.07102,-2.95023 -1.54102,-3.24023 -1.29,-0.8 -6.03937,1.97094 -9.35937,5.46094 -3.5,3.69 -4.52102,2.78953 -4.54102,-3.98047 -0.02,-5.43 2.36047,-14.05969 5.23047,-18.92969 2.09,-3.55 8.68047,-11 9.73047,-11 z m 305.91992,10.13086 0.60938,4.17969 c 0.34,2.31 0.47101,7.33945 0.29101,11.18945 l -0.32031,7 -4.33008,-8.83008 c -2.38,-4.86 -4.17023,-8.94031 -3.99023,-9.07031 0.19,-0.13 1.99906,-1.18938 4.03906,-2.35938 z m -28.62109,3.47852 2.36132,2.95117 c 2.85001,3.54 3.85899,6.34023 2.70899,7.49023 -0.47,0.46 -2.52031,1.53844 -4.57031,2.39844 -3.67,1.53 -3.75,1.51117 -7.25,-1.54883 C 724.5893,597.19039 723,595.44 723,595 c 0,-0.44 2.31063,-2.27984 5.14062,-4.08984 z m -243.58985,13.10156 2.41016,0.56836 c 1.32,0.31 6.67039,2.20117 11.90039,4.20117 5.23,1.99 10.09984,3.83008 10.83984,4.08008 2.56,0.86 -7.17922,15.53 -11.94922,18 -3.68,1.9 -4.16992,1.83968 -6.66992,-0.82032 -3.42,-3.65 -5.40047,-9.64109 -5.98047,-18.12109 z m 250.31055,3.25 -0.0195,4.76953 c -0.01,4.58 -2.17977,15.79889 -3.25977,16.87891 -0.29,0.28998 -0.75125,0.15117 -1.03125,-0.29883 -0.88,-1.42 -3.68945,-12.98969 -3.68945,-15.17969 0,-1.43 1.26,-2.73086 4,-4.13086 z" />
    <path
       d="m 688.56,409.03 c -0.31,0.26 -0.56,2.4 -0.56,4.98 0,18.99 -22.34,29.97 -45.06,22.14 -2.99,-1.03 -11.22459,-3.24973 -16.67,-7.51 -4.12642,-3.22835 -11.38,-5.64 -11.57,-5.64 -0.14,0 -1.60693,-0.44449 -1.98693,-1.98449 C 608.98717,411.29969 607.8,409.65 603.12,407.86 c -3.81,-1.45 -6.58,1.18 -9.61,9.12 -0.18,0.47 -0.37,0.93 -0.56,1.39 0.03,-0.2 0.05,-0.39 0.05,-0.57 0,-0.72 -2.26,-3.24 -5.02,-5.62 -5.9,-5.09 -7.98,-9.45 -7.98,-16.78 v -5.35 l -3.25,0.55 -0.16,0.03 c 0.78,-0.21 1.46,-0.43 1.91,-0.62 3,-1.28 21.34,-3.01 31.81,-3.01 27.3,0 55.1,7.9 78.25,22.03 z m -163.27,28.36 1.97,4.46 c 2.82,6.38 3.36,16.14 1.34,24.17 -4.08,16.2 -13.74,28.42 -28.35,35.86 -3.2,1.63 -3.99,2.14 -4.2,4.47 0.01,-3.9 -0.67,-7.92 -2.1,-11.75 -2.17,-5.81 -7.16,-11.11 -11.47,-12.2 -10.41,-2.61 -19.49,7.67 -19.47,22.05 0,6.47 0.71,10.78 2.51,14.57 -1.57,-3.27 -2.51,-7.09 -2.51,-11.15 -0.01,-2.92 -0.45,-3.75 -2.26,-4.24 -1.8,-0.48 -2.91,-0.1 -3.84,2.19 8.63,-32.1 30.03,-56.59 59.28,-66.21 2.8,-0.92 5.8,-1.66 9.1,-2.22 z m 227.94,68.55 c -0.57,-0.41 -2.03,-0.03 -4.86,1.22 -3.78,1.67 -6.05,1.99 -11.5,1.6 -8.98,-0.64 -15.89,-4.1 -23.43,-11.73 -11.23,-11.36 -15.01,-21.83 -12.11,-33.56 2.42,-9.84 9.71,-19.17 17.47,-22.39 1.76,-0.73 3.19,-1.61 3.17,-1.95 -0.03,-0.92 -4.34,-6.03 -8.71,-10.63 19.65,19.96 33.88,47.37 39.97,77.44 z m -64.55,24.14 c -4.47,3.3 -11.93,3.67 -17.47,0.85 -14.01,-7.12 -16.22,-30.26 -3.46,-36.35 9.65,-4.6 19.57,0.84 25.34,13.89 3.49,7.9 1.6,17.16 -4.41,21.61 z m -83.9,20.03 c -4.64,2.37 -12.88,3.26 -17.34,1.88 -1.68,-0.52 -4.09,-2.06 -5.37,-3.42 -4.41,-4.69 -2.24,-10.86 5.19,-14.77 5.97,-3.15 18.3,-3.25 22.41,-0.2 5.9,4.38 3.59,12.19 -4.89,16.51 z m -146.15,61.83 c -0.82,-1.95 -1.8,-4.77 -2.17,-6.25 -0.38,-1.49 -1.07,-2.95 -1.54,-3.24 -1.29,-0.8 -6.04,1.97 -9.36,5.46 -3.5,3.69 -4.52,2.79 -4.54,-3.98 -0.02,-5.43 2.36,-14.06 5.23,-18.93 0.25,-0.42 0.56,-0.9 0.92,-1.41 -0.01,0.02 -0.02,0.04 -0.03,0.05 -0.99,1.94 -0.79,2.2 2.14,2.75 3.53,0.66 12.34,5 14.68,7.22 3.33178,2.7579 3.25607,0.77351 2.04,5.28 -0.94572,3.50464 -2.56,12.13 -4.4,14.63 -1.42,1.91 -1.52,1.85 -2.97,-1.58 z m 159.28,30.29 c -0.23,-1.89 0.24,-10.9 0.65,-12.28 0.25,-0.86 -0.13,-2.34 -0.83,-3.31 -1.21,-1.65 -1.6,-1.61 -6.76,0.79 -3.01,1.4 -6.71,2.55 -8.23,2.56 l -2.76,0.01 5.45,-10.85 c 2.84,-5.67 5.03,-10.89 6.48,-15.42 -0.68,2.53 -1.53,5.34 -2.53,8.34 -0.38,1.16 0.6,1.9 3.8,2.83 6.31,1.83 14.47,7.54 18.07,12.65 l 3.14,4.45 2.05,-1.96 c -2.9,3.45 -6,6.28 -9.12,8.19 -5.05,3.1 -9.3,4.9 -9.41,4 z m 8.67,-174.32 c 7.74,-3.92 13.78,-6.31 16.83,-6.65 3.12,-0.35 4.3,-0.83 3.42,-1.38 -0.32,-0.21 -0.72,-0.37 -1.2,-0.5 2.81,0.27 2.94,0.82 3.18,3.27 0.37,3.89 -4.12,9.43 -10.22,12.59 -2.96,1.53 -6.43,2.22 -12.59,2.49 -7.39,0.32 -8.92,0.08 -11.75,-1.78 -3.65,-2.41 -4.07,-3.7 -1.5,-4.68 0.96,-0.36 4.38,-2.36 7.6,-4.43 4.19,-2.7 8.08,-4.67 11.75,-5.94 -0.47,0.16 -0.93,0.34 -1.37,0.52 -6.43,2.64 -18.73,10.33 -18.73,11.7 0,1.76 2.73,0.79 14.58,-5.21 z m -173.4,59.28 c 0.01,0.94 0.19,1.49 0.56,1.8 0.55,0.46 1.56,0.38 3.13,0.25 0.34,-0.03 0.7,-0.06 1.09,-0.08 9.06,-0.63 19.04,5.78 19.04,12.23 -4.61116,17.56162 -22.90218,15.16277 -21.71667,12.80291 L 452.59805,541.842 c 0.08,-2.14 0.40195,-12.562 0.58195,-14.652 z m -3.19,-50.59 c -15.56,-4.38 -25.28,-18.27 -17.24,-24.63 -2.97,2.35 -3.64,6.49 -1.66,10.21 1.06,1.96 1.11865,2.45917 2.99,-1.07 1.77,-2.9 2.27,-3.11 7.66,-3.1 0.25,0 0.5,0 0.75,0.01 h -0.18 c -2.86,-0.01 -5.47,0.43 -5.81,0.98 -0.36,0.58 0.62,1 2.34,1 2.81,0 18.4,7.25 22.65,10.53 1.84,1.42 1.87,1.74 0.47,4.25 -1.79,3.21 -5.2,3.72 -11.97,1.82 z m 285.7,148.71 c -0.88,-1.42 -3.69,-12.99 -3.69,-15.18 0,-1.43 1.26,-2.73 4,-4.13 l 4,-2.04 -0.02,4.77 c -0.01,4.58 -2.18,15.8 -3.26,16.88 -0.29,0.29 -0.75,0.15 -1.03,-0.3 z m 22.46,-27.64 c -2.38,-4.86 -4.17,-8.94 -3.99,-9.07 0.19,-0.13 2,-1.19 4.04,-2.36 l 3.7,-2.11 0.61,4.18 c 0.34,2.31 0.47,7.34 0.29,11.19 l -0.32,7 z m -255.23,-0.25 c 21.99,8.85 50.65,14.42 84.64,16.18 -34.95,-1.81 -62.68,-7.07 -84.64,-16.18 z m 32.23,-191.36 c -6.21,3.36 -12.18,7.07 -17.54,10.95 1.66,-1.26 3.24,-2.41 4.63,-3.38 3.45,-2.39 7.95,-5 12.91,-7.57 z m 108.27,213.76 c 3.02,-5.85 5.92,-12.99 7.15,-18.19 -1.48,6.25 -4,12.54 -7.15,18.19 z M 495.98,508.47 v 0.3 c -0.02,4.03 -1.31,8.27 -3.41,11.89 1.94,-3.52 3.12,-7.74 3.41,-12.19 z m 11.87,-73.7 c 4.19,-1.5 8.47,-2.74 12.79,-3.71 -2.35,0.56 -4.66,1.2 -6.91,1.92 -2.58,0.83 -4.46,1.42 -5.88,1.79 z m 105.88,9.32 c -0.25,1.5 -0.58,2.78 -0.98,3.87 -0.92,2.45 -1.5,4.62 -1.3,4.82 -0.2,-0.2 0.3,-2.29 1.12,-4.65 0.46,-1.34 0.84,-2.68 1.16,-4.04 z m -57.46,-7.64 c -3.76,-0.29 -8.61,-0.44 -13.27,-0.43 0.56,-0.01 1.13,-0.01 1.7,-0.01 4.55,-0.01 8.19,0.11 11.57,0.44 z m -94.58,28.98 c 0.1,0.08 0.21,0.15 0.32,0.22 l -0.67,-0.43 c -3.36,-2.15 -6.27,-3.76 -8.95,-4.91 2.97,1.22 6.06,2.92 9.3,5.12 z m 40.22,-31.39 c 0.44,0.37 0.9,0.69 1.35,0.95 -0.33,-0.14 -0.64,-0.32 -0.99,-0.55 -1,-0.65 -1.85,-1.43 -2.15,-1.93 z M 455.02,514 c -0.13,0.77 -0.26,1.59 -0.4,2.46 -0.4,2.55 -0.73,4.6 -0.97,6.26 0.35,-2.96 0.81,-5.86 1.37,-8.72 z m 9.1,-47 c 1,0.61 1.74,1 1.92,1 0.24,0 0.75,-0.48 1.36,-1.18 l -1.23,1.5 z m -7.27,91.63 c 0.44,0.97 1.01,2.1 1.67,3.42 0.35,0.67 0.71,1.35 1.08,2.01 -1.15,-1.9 -2.09,-3.74 -2.75,-5.43 z m 11.32,-92.76 c 1.23,-1.58 2.56,-3.61 2.79,-4.46 -0.03,0.62 -1.11,2.41 -2.41,4 z m 41.15,-42.3 c -2.18,1.87 -4.56,3.91 -6.12,5.25 1.65,-1.49 3.79,-3.32 6.12,-5.25 z m 55.41,14.23 c 2.71,0.6 5.61,1.38 9.03,2.4 -2.7,-0.8 -6.17,-1.72 -9.03,-2.4 z m 19.18,-6.2 -2.85,3.12 -0.05,-0.02 z m 30.04,160.27 c -0.14,-1.29 -0.54,-1.84 -1.2,-1.62 0.71,-0.24 1.1,0.35 1.2,1.62 z m 88.19,-173.4 c -1.24,-0.96 -2.52,-1.94 -3.79,-2.89 0.2,0.15 0.4,0.3 0.6,0.44 1.08,0.8 2.14,1.62 3.19,2.45 z M 453.4,576.12 c 1.23,-1.27 2.22,-2.12 2.58,-2.12 -0.33,0 -1.34,0.88 -2.58,2.12 z m 15.03,-52.47 c -0.94,-1.15 -1.78,-2.44 -2.51,-3.83 0.4,0.77 0.86,1.52 1.36,2.27 0.37,0.55 0.75,1.07 1.15,1.56 z M 569.78,392.1 c -0.86,0.21 -1.72,0.45 -2.59,0.69 0.9,-0.26 1.76,-0.49 2.59,-0.69 z m 64.05,68.25 c 0.87,-0.25 1.72,-0.46 2.56,-0.63 -0.85,0.17 -1.71,0.39 -2.56,0.63 z"
       fill="#cf844b"
       id="path2"
       style="stroke:url(#radialGradient28)" />
  </g>
</svg>
