<svg xmlns="http://www.w3.org/2000/svg"  viewBox="23.437 72.266 141.406 117.188">
  <path d="M122.48 126.297c-1.213.629-2.332.783-2.852.395-.322-.242-.383-.486-.344-1.404.047-1.107.047-1.109-.461-.982-1.264.316-1.672.338-2.225.109-.879-.365-.963-1.228-.271-2.852.062-.147-.707-.26-2.406-.354-3.326-.186-6.619-.603-9.473-1.207-1.289-.271-2.367-.467-2.397-.434s-.291.533-.58 1.111c-.59 1.174-2.059 2.842-2.873 3.264-2.32 1.199-4.516-2.002-4.219-6.154.088-1.248.062-1.363-.348-1.582-.385-.207-.531-.166-1.145.322-.578.463-.701.687-.701 1.285 0 .955-.717 2.842-1.301 3.426-.709.709-1.389.531-2.209-.58l-.68-.922-.494.459c-.27.252-.707.568-.969.703-.43.223-.525.189-1.01-.354-.68-.76-.885-2.031-.625-3.848.252-1.76 1.061-3.402 2.381-4.828l1.049-1.137-.414-.998c-.228-.551-.416-1.121-.416-1.27q0-.272-.439-.168c-.242.057-1.256.268-2.256.469-.998.201-1.834.398-1.855.437s-.342.682-.713 1.426c-1.15 2.311-3.354 4.086-6.051 4.877-.936.275-3.09.313-18.27.313-14.834 0-17.367-.041-18.359-.299-3.855-1.006-6.5-3.588-7.238-7.068-.326-1.541-.365-4.33-.094-6.695.451-3.928 3.377-7.07 7.371-7.916 1.992-.422 34.543-.416 36.336.008 4.209.992 7.271 4.592 7.271 8.549 0 .693.107 1.375.244 1.549.135.172.959.527 1.832.789l1.59.479.127-1.582c.184-2.246.842-5.422 1.502-7.234.311-.853.564-1.568.564-1.59s-.379-.094-.844-.164c-.463-.07-1.371-.377-2.016-.682-3.723-1.76-4.914-5.32-2.35-7.018.672-.443.988-.518 2.168-.508 1.541.014 2.857.391 4.867 1.395.736.369 1.369.639 1.408.602.037-.039-.07-.539-.238-1.113-.434-1.477-.281-4.07.314-5.437.479-1.092 1.551-2.195 2.135-2.195.451 0 .904.502 1.285 1.424l.594 1.432.293.707 1.221-1.07c7.691-6.752 17.742-9.357 28.029-7.266 8.199 1.668 15.465 7.131 19.373 14.564 2.203 4.189 3.316 8.121 3.822 13.5.115 1.221.158 1.318.586 1.318.621 0 .703-.193.455-1.088-.463-1.682.631-4.031 2.162-4.645 1.203-.482 1.281-.404.521.523-1.361 1.66-1.693 3.561-.848 4.838.473.713 2.25 1.738 3.014 1.738.598 0 .576.271-.045.555-.938.428-2.557.117-3.406-.652-.266-.238-.414-.238-1.082 0-.426.152-.916.279-1.086.285-.217.006-.385.346-.557 1.131-.135.617-.412 1.506-.615 1.975l-.369.85.779.887c1.041 1.182 1.576 2.889 1.705 5.441.156 3.102-.457 4.242-1.887 3.502-.482-.25-.824-.73-1.492-2.104-.477-.981-.869-1.92-.869-2.09-.002-.254-1.143-1.186-1.451-1.186-.051 0 .189.453.533 1.008.57.916.633 1.174.695 2.863.154 4.131-1.254 6.764-2.826 5.285-.506-.475-1.115-2.197-1.336-3.785-.107-.777-.309-1.166-.981-1.9l-.844-.926-1.338.607c-2.824 1.283-6.365 2.34-10.719 3.201-.234.045-.566.424-.807.914-.563 1.154-2.047 3.07-2.889 3.73-.387.301-1.127.77-1.65 1.041m-1.795-.861c.021.176.852-.176 1.838-.781 1.938-1.188 3.842-4.188 4.541-7.148.193-.82.414-1.49.492-1.49.24 0 .568 1.191.568 2.068 0 .461.066.877.147.926.236.143 5.875-1.355 7.494-1.99 5.469-2.147 9.291-5.008 10.816-8.096.381-.773.748-1.74.814-2.15l.119-.746-.916.582c-1.08.686-4.066 1.803-6.268 2.348-6.639 1.643-12.039.832-14.945-2.24-1.393-1.475-2.197-3.316-2.9-6.652-.32-1.523-.853-3.41-1.182-4.191-.328-.783-.533-1.484-.453-1.559.08-.072.883-.23 1.787-.35 2.66-.348 4.477-1.371 5.309-2.99.498-.967.479-1.873-.051-2.437-.369-.391-.613-.451-1.836-.451-1.555 0-3.061.398-5.57 1.473-1.465.627-1.607.652-2.121.389-.766-.397-.853-.785-.406-1.797.922-2.082.967-4.182.133-6.178-.281-.672-.713-.986-.713-.516 0 .414-1.213 2.635-1.893 3.463-.383.469-.992.994-1.354 1.166-.615.293-.742.287-2.074-.109-2.228-.662-3.328-.82-5.676-.818-2.354.002-4.109.223-5.568.703-7.266 2.389-12.051 9.477-12.383 18.346l-.057 1.531 1.541.445c.848.246 1.588.494 1.648.553.228.228-.5.672-1.529.932-.967.244-1.066.318-1.006.742.213 1.445 2.092 3.945 4.07 5.412 4.836 3.582 11.764 5.51 21.654 6.021l2.553.133.475-1.135c.795-1.895 1.635-3.475 1.893-3.559.16-.055.244.131.244.541 0 1.135-.598 2.955-1.674 5.104l-1.064 2.119.539-.002c.297-.002 1.019-.227 1.607-.5 1.008-.469 1.084-.477 1.32-.154.137.189.211.479.162.646-.08.27-.172 2.029-.127 2.398m-81.432-11.428 1.273.436 17.09.002h1.268c14.799.004 16.603.004 18.09-.686.248-.115.486-.25.775-.406 1.533-.832 2.764-2.189 3.527-3.887.361-.805.787-1.5.949-1.545.162-.047 1.26-.273 2.441-.506 1.182-.23 2.217-.484 2.299-.563s-.928-.479-2.246-.891-2.484-.828-2.592-.924-.242-1.115-.299-2.266c-.119-2.428-.568-3.627-1.934-5.162-.951-1.068-3.061-2.195-4.68-2.494-.648-.121-7.357-.193-17.48-.191-17.715.004-17.963.016-19.969 1.035-1.527.775-2.721 1.961-3.434 3.41l-.643 1.305v4.105c0 4.102 0 4.107.537 5.123 1.055 2 2.631 3.287 5.025 4.104m92.973-5.728c1.109.133 4.262-.062 6.152-.385 2.977-.508 7.07-2.039 8.729-3.266.488-.361.549-.525.545-1.492-.002-.598-.125-1.877-.275-2.844-1.205-7.812-5.227-14.859-10.863-19.039-4.869-3.609-11.154-5.668-17.313-5.668-2.045 0-5.627.338-6.213.588-.215.09-.703.217-1.084.279-2.285.373-7.453 2.635-9.904 4.334-1.561 1.082-4.344 3.406-4.344 3.627 0 .082.199.277.443.437.406.266.603.24 2.238-.285 3.586-1.152 7.848-1.197 11.568-.119l1.582.459.951-1.043a7.5 7.5 0 0 0 1.48-2.422c.592-1.551 1.133-2.064 1.877-1.781.914.35 1.514 1.361 2.031 3.43a7.7 7.7 0 0 1-.186 4.436c-.16.461-.258.869-.219.908.037.039.408-.102.82-.311 1.646-.838 3.93-1.404 5.652-1.404 2.699 0 3.791.848 3.791 2.947 0 1.346-.537 2.436-1.772 3.59-1.123 1.049-2.645 1.785-4.09 1.979-.904.119-.994.174-.889.545.215.752 1.029 4.1 1.359 5.592.383 1.729 1.008 3.152 1.793 4.082 1.228 1.457 3.51 2.508 6.137 2.826m-17.871-4.543c-.801.365-2.338.453-3.223.182-2.439-.744-3.908-2.689-3.904-5.174.002-2.141.988-3.902 2.727-4.875.912-.508 1.271-.596 2.441-.594 1.139 0 1.547.096 2.391.557 2.432 1.332 3.402 4.695 2.129 7.379-.576 1.213-1.346 1.973-2.561 2.525m-19.668-.494c-1.143.594-2.506.088-3.422-1.271-.609-.904-.834-1.83-.834-3.445-.004-2.809 1.77-4.816 3.803-4.307.842.213 1.816 1.248 2.24 2.383.971 2.596.154 5.629-1.787 6.641m-5.111 16.277c.283.67.303.682.58.309.359-.488.859-2.148.859-2.857 0-.377.207-.707.695-1.109l.695-.572-1.617-1.59c-.891-.875-1.668-1.59-1.73-1.59-.205 0-1.492 1.455-1.9 2.148-.561.951-1.025 2.637-1.021 3.697.004 1.322.203 1.498.887.777.648-.682 1.576-1.223 1.828-1.066.092.057.227.342.301.633.072.289.264.84.424 1.221m-1.687-26.434c1.322.371 1.988.271 2.338-.355.273-.49.268-.553-.092-.83-.83-.641-3.875-2.057-4.424-2.057-.336 0-.527-.082-.457-.195.066-.107.576-.193 1.135-.191 1.09.006 2.164.412 3.717 1.406l.943.605.465-.568c.256-.313.467-.666.471-.785.004-.117-.893-.637-1.994-1.152-1.687-.789-2.232-.949-3.467-1.023-1.289-.08-1.529-.039-2.002.336-1.57 1.242.328 3.955 3.367 4.811m17.113 16.004c-2.264 1.119-4.744 1.088-6.924-.086-1.115-.602-2.57-2.262-2.57-2.934 0-.107.188-.297.418-.42.371-.199.502-.125 1.188.678 1.434 1.676 3.496 2.461 5.492 2.092 1.506-.277 2.533-.848 3.664-2.033.803-.842 1.019-.975 1.303-.797.594.373.49.934-.35 1.889-.521.592-1.299 1.156-2.221 1.611m-60.965-1.945c-.865.361-1.215.35-2.045-.064-1.75-.875-1.729-3.549.033-4.461.91-.471 2.074-.26 2.75.496.436.488.537.789.537 1.586 0 1.258-.436 2.092-1.275 2.443m68.406-4.387-.627.4 1.039-.088c2.156-.18 3.623-1.961 3.633-4.412.004-1.4-.313-2.23-1.227-3.217-.758-.814-1.443-1.105-2.605-1.104h-1.035l.586.307c.859.447 1.199.807 1.629 1.721 1.082 2.301.445 5.223-1.393 6.393m-63.733 3.002c-.34 1.447-.354 1.467-.971 1.467h-.625l-.609-2.197c-.334-1.209-.607-2.264-.607-2.344s.262-.147.582-.147c.443 0 .607.105.686.439.057.242.221.967.367 1.611l.264 1.172.236-.879c.129-.482.32-1.209.426-1.611.164-.635.264-.732.758-.732.49 0 .598.102.777.732.115.402.264 1.105.33 1.563s.174.83.242.83c.066 0 .279-.703.473-1.563.342-1.52.367-1.563.926-1.563.316 0 .57.066.568.147-.004.08-.295 1.113-.648 2.295-.623 2.092-.656 2.15-1.238 2.207-.592.059-.603.041-.938-1.318-.186-.76-.408-1.424-.494-1.477-.088-.055-.313.563-.504 1.367m48.207 16.65c.488.52.584.531 1.303.16.932-.482 2.834-3.348 2.334-3.516-.145-.049-1.096-.408-2.117-.797-1.021-.391-2.066-.76-2.324-.82l-.471-.111.107 1.545c.113 1.656.5 2.826 1.168 3.539m-36.807-15.291c-.814.342-.863.344-1.455.105-.922-.371-1.131-1.697-.361-2.301.264-.209.928-.439 1.477-.512.883-.117.988-.18.934-.563-.076-.535-.945-.689-1.389-.246-.354.352-1.029.4-1.223.088-.074-.119.098-.449.383-.732.432-.434.691-.518 1.58-.518 1.654 0 1.922.375 2.019 2.83l.078 1.955h-.592c-.326 0-.623-.092-.66-.205-.045-.131-.324-.098-.791.098M93.443 86.99c.178.617.389 1.094.467 1.061.078-.035.861-.543 1.74-1.129l1.598-1.066-.701-.691c-.6-.592-1.49-2.184-1.889-3.377-.195-.582-.521-.381-.949.582-.564 1.279-.676 3.213-.266 4.621M65 108.501c-.367.469-1.453.684-1.783.354-.258-.256-.123-.65.221-.65.467 0 .82-.375.818-.869-.002-.221-.354-1.352-.781-2.514-.43-1.162-.779-2.156-.779-2.209s.281-.07.623-.035c.594.057.648.135 1.115 1.574.434 1.342.801 1.932.801 1.291 0-.123.18-.826.398-1.563.377-1.264.432-1.34.977-1.34.318 0 .578.041.578.092 0 .418-1.891 5.494-2.188 5.869m-8.609-1.463c-.732.445-1.547.48-2.42.1-.533-.23-1.041-.801-1.041-1.166 0-.271 1.332-.092 1.443.193.178.467 1.389.303 1.389-.188 0-.275-.271-.459-1.066-.719-.586-.189-1.18-.502-1.318-.691-.898-1.23.834-2.603 2.564-2.033.656.217 1.09.68 1.09 1.164 0 .314-.895.25-1.172-.084-.314-.377-1.293-.379-1.437-.004-.129.338.223.557 1.389.871 1.535.412 1.846 1.785.58 2.557m22.271-.297c-.467.541-1.603.787-2.437.525-.598-.188-1.225-.756-1.225-1.111 0-.398 1.043-.391 1.375.008.342.412 1.432.299 1.52-.156.068-.365.008-.4-1.293-.732-1.525-.391-2.059-1.457-1.152-2.307a2.54 2.54 0 0 1 1.057-.543c1.113-.223 2.4.461 2.4 1.273 0 .314-.895.25-1.172-.084s-1.281-.395-1.471-.09c-.223.363.309.752 1.221.887 1.541.232 2.074 1.285 1.178 2.33m-39.838.473c-.772.268-1.086.256-1.85-.076-.805-.352-1.232-1.203-1.232-2.455 0-.842.09-1.09.561-1.563.66-.66 1.336-.865 2.264-.691.674.125 1.473.891 1.473 1.406 0 .426-1.041.328-1.322-.123-.133-.215-.418-.391-.633-.391-.65 0-1.17.693-1.17 1.563 0 .818.512 1.563 1.074 1.563.16 0 .469-.176.684-.391.408-.408 1.367-.539 1.367-.188 0 .434-.641 1.145-1.215 1.346m34.027-1.484v1.498H71.68v-4.687h.586c.402 0 .586.096.586.307 0 .256.088.238.514-.098.729-.572 1.049-.518 1.049.182 0 .484-.08.586-.459.586-.824 0-1.104.561-1.104 2.213m-30.469.326c.215.215.523.391.684.391.549 0 1.074-.744 1.074-1.52 0-.918-.459-1.605-1.074-1.605-1 0-1.484 1.934-.684 2.734m99.518 10.918c.684.598.699.602 1.416.303.4-.168.801-.379.893-.469.225-.225.027-.772-.529-1.463l-.461-.576-1.004.645c-.553.354-1.004.713-1.004.799s.311.428.689.762m4.068-3.566c.295.254.623.461.73.461.313 0 1.738-.775 1.738-.947 0-.268-1.197-1.982-1.385-1.982-.098 0-.178.072-.178.16s-.324.539-.721 1.004l-.723.842Zm-23.59-22.017c-2.314 1.172-2.848 1.361-2.848 1.018 0-.268 2.402-1.77 3.658-2.285 1.129-.465 2.656-.611 3.145-.301.172.107-.059.201-.668.27-.596.066-1.775.533-3.287 1.299m21.311 30.742c.055.088.145.115.201.059.211-.211.635-2.402.637-3.297l.004-.932-.781.398c-.535.273-.781.527-.781.807 0 .428.549 2.687.721 2.965m4.387-5.398.846 1.725.062-1.367c.035-.752.01-1.734-.057-2.186l-.119-.816-.723.412c-.398.228-.752.436-.789.461-.035.025.314.822.779 1.772m-38.965-18.652c.402.443.809.455 1.273.035.701-.637.275-2.021-.621-2.021-.428 0-.975.701-.975 1.248 0 .211.145.543.322.738m-17.168.147c.521.303.779.252 1.111-.223.393-.561.387-1.105-.018-1.553-.373-.412-.863-.461-1.201-.123-.367.367-.295 1.664.107 1.898m-21.24 6.558c0 .475-.039.488-1.367.488s-1.367-.014-1.367-.488.039-.488 1.367-.488 1.367.014 1.367.488m-11.475 1.531c.742.299 1.514-.088 1.514-.758 0-.535-.223-.586-1.143-.266-.629.219-.85.83-.371 1.023" fill="#070606"/>
  <path d="M134.484 79.889c-.061.051-.109.469-.109.973 0 3.709-4.363 5.853-8.801 4.324-.584-.201-2.049-.861-3.256-1.467s-2.223-1.102-2.26-1.102c-.027 0-.051.578-.059 1.377a8 8 0 0 0-.172-.904c-.518-2.068-1.117-3.08-2.031-3.43-.744-.283-1.285.23-1.877 1.781a10 10 0 0 1-.109.271 1 1 0 0 0 .01-.111c0-.141-.441-.633-.981-1.098-1.152-.994-1.559-1.846-1.559-3.277v-1.045l-.635.107-.031.006c.152-.041.285-.084.373-.121.586-.25 4.168-.588 6.213-.588 5.332 0 10.762 1.543 15.283 4.303m-31.889 5.539.385.871c.551 1.246.656 3.152.262 4.721-.797 3.164-2.684 5.551-5.537 7.004-.625.318-.779.418-.82.873a6.5 6.5 0 0 0-.41-2.295c-.424-1.135-1.398-2.17-2.24-2.383-2.033-.51-3.807 1.498-3.803 4.307 0 1.264.139 2.105.49 2.846a5.04 5.04 0 0 1-.49-2.178c-.002-.57-.088-.732-.441-.828-.352-.094-.568-.019-.75.428 1.686-6.27 5.865-11.053 11.578-12.932a12 12 0 0 1 1.777-.434m44.52 13.389c-.111-.08-.397-.006-.949.238-.738.326-1.182.389-2.246.313-1.754-.125-3.104-.801-4.576-2.291-2.193-2.219-2.932-4.264-2.365-6.555.473-1.922 1.896-3.744 3.412-4.373.344-.143.623-.314.619-.381-.006-.18-.848-1.178-1.701-2.076 3.838 3.898 6.617 9.252 7.807 15.125m-12.607 4.715c-.873.645-2.33.717-3.412.166-2.736-1.391-3.168-5.91-.676-7.1 1.885-.898 3.822.164 4.949 2.713.682 1.543.313 3.352-.861 4.221m-16.387 3.912c-.906.463-2.516.637-3.387.367-.328-.102-.799-.402-1.049-.668-.861-.916-.437-2.121 1.014-2.885 1.166-.615 3.574-.635 4.377-.039 1.152.855.701 2.381-.955 3.225m-28.545 12.076a11 11 0 0 1-.424-1.221c-.074-.291-.209-.576-.301-.633-.252-.156-1.18.385-1.828 1.066-.684.721-.883.545-.887-.777-.004-1.061.461-2.746 1.021-3.697a4 4 0 0 1 .18-.275l-.006.01c-.193.379-.154.43.418.537.689.129 2.41.977 2.867 1.41.346.328.549.338 1.047-.039-.455.385-.648.705-.648 1.07 0 .709-.5 2.369-.859 2.857-.277.373-.297.361-.58-.309m31.109 5.916c-.045-.369.047-2.129.127-2.398.049-.168-.025-.457-.162-.646-.236-.322-.313-.314-1.32.154-.588.273-1.311.498-1.607.5l-.539.002 1.064-2.119c.555-1.107.982-2.127 1.266-3.012a30 30 0 0 1-.494 1.629c-.074.227.117.371.742.553 1.232.357 2.826 1.473 3.529 2.471l.613.869.4-.383c-.566.674-1.172 1.227-1.781 1.6-.986.605-1.816.957-1.838.781m1.693-34.047c1.512-.766 2.691-1.232 3.287-1.299.609-.068.84-.162.668-.27a.8.8 0 0 0-.234-.098c.549.053.574.16.621.639.072.76-.805 1.842-1.996 2.459-.578.299-1.256.434-2.459.486-1.443.062-1.742.016-2.295-.348-.713-.471-.795-.723-.293-.914.188-.07.855-.461 1.484-.865.818-.527 1.578-.912 2.295-1.16a4 4 0 0 0-.268.102c-1.256.516-3.658 2.018-3.658 2.285 0 .344.533.154 2.848-1.018m-33.867 11.578c.002.184.037.291.109.352.107.09.305.074.611.049l.213-.016c1.77-.123 3.719 1.129 3.719 2.389 0 .699-.875 1.307-2.539 1.76l-.158.043c.793-.26 1.297-.611 1.102-.807-.061-.059-.801-.307-1.648-.553l-1.541-.445.057-1.531q.024-.627.076-1.24m-.623-9.881c-3.039-.855-4.938-3.568-3.367-4.811-.58.459-.711 1.268-.324 1.994.207.383.228.375.584-.209.346-.566.443-.607 1.496-.605q.074 0 .147.002h-.035c-.559-.002-1.068.084-1.135.191-.07.113.121.195.457.195.549 0 3.594 1.416 4.424 2.057.359.277.365.34.092.83-.35.627-1.016.727-2.338.355m55.801 29.045c-.172-.277-.721-2.537-.721-2.965 0-.279.246-.533.781-.807l.781-.398-.004.932c-.002.895-.426 3.086-.637 3.297-.057.057-.147.029-.201-.059m4.387-5.398c-.465-.949-.814-1.746-.779-1.772.037-.025.391-.232.789-.461l.723-.412.119.816c.066.451.092 1.434.057 2.186l-.062 1.367Zm-49.85-.049c4.295 1.729 9.893 2.816 16.531 3.16-6.826-.354-12.242-1.381-16.531-3.16m-47.152-12.778q.064-.261.115-.461c-.043.182-.094.397-.15.656-.193.859-.406 1.563-.473 1.563-.068 0-.176-.373-.242-.83s-.215-1.16-.33-1.563l-.021-.074c.105.316.207.777.342 1.451.068.344.193.625.275.625s.301-.615.484-1.367m53.447-24.598a31 31 0 0 0-3.426 2.139 29 29 0 0 1 .904-.66c.674-.467 1.553-.977 2.521-1.479m21.147 41.75c.59-1.143 1.156-2.537 1.397-3.553a14 14 0 0 1-1.397 3.553m-35.664-13.383c-.641.195-.939.352-.981.652-.033-.35.109-.432.981-.652m6.867-8.365v.059c-.004.787-.256 1.615-.666 2.322.379-.687.609-1.512.666-2.381m2.318-14.395a21 21 0 0 1 2.498-.725 19 19 0 0 0-1.35.375c-.504.162-.871.277-1.148.35m20.68 1.82a4 4 0 0 1-.191.756c-.18.479-.293.902-.254.941-.039-.039.059-.447.219-.908a8 8 0 0 0 .227-.789m-11.223-1.492a35 35 0 0 0-2.592-.084q.165-.002.332-.002c.889-.002 1.6.021 2.26.086m-18.473 5.66q.03.023.062.043l-.131-.084c-.656-.42-1.225-.734-1.748-.959q.869.356 1.816 1m7.855-6.131a2 2 0 0 0 .264.186 1 1 0 0 1-.193-.107c-.195-.127-.361-.279-.42-.377Zm-9.158 15.617-.078.48c-.078.498-.143.898-.189 1.223a23 23 0 0 1 .268-1.703m1.777-9.18c.195.119.34.195.375.195.047 0 .147-.094.266-.23l-.24.293Zm-1.42 17.896q.13.282.326.668a15 15 0 0 0 .211.393 7 7 0 0 1-.537-1.061m2.211-18.117c.24-.309.5-.705.545-.871-.006.121-.217.471-.471.781Zm8.037-8.262-1.195 1.025c.322-.291.74-.648 1.195-1.025m10.822 2.779c.529.117 1.096.27 1.764.469a37 37 0 0 0-1.764-.469m3.746-1.211-.557.609-.01-.004Zm5.867 31.303q-.04-.38-.234-.316c.139-.047.215.068.234.316m17.225-33.867a56 56 0 0 0-.74-.564l.117.086a25 25 0 0 1 .623.479m-48.582 30.794c.24-.248.434-.414.504-.414-.064 0-.262.172-.504.414m2.936-10.248a4.4 4.4 0 0 1-.49-.748 5 5 0 0 0 .49.748m19.795-25.693q-.252.063-.506.135a12 12 0 0 1 .506-.135m12.51 13.33" fill="#cf844b"/>
  <path d="M0 100V0h200v200H0zm122.48 26.297c.523-.271 1.264-.74 1.65-1.041.842-.66 2.326-2.576 2.889-3.73.24-.49.572-.869.807-.914 4.354-.861 7.895-1.918 10.719-3.201l1.338-.607.844.926c.672.734.873 1.123.981 1.9.221 1.588.83 3.311 1.336 3.785 1.572 1.479 2.981-1.154 2.826-5.285-.062-1.689-.125-1.947-.695-2.863-.344-.555-.584-1.008-.533-1.008.309 0 1.449.932 1.451 1.186 0 .17.393 1.109.869 2.09.668 1.373 1.01 1.853 1.492 2.104 1.43.74 2.043-.4 1.887-3.502-.129-2.553-.664-4.26-1.705-5.441l-.779-.887.369-.85c.203-.469.48-1.357.615-1.975.172-.785.34-1.125.557-1.131.17-.006.66-.133 1.086-.285.668-.238.816-.238 1.082 0 .85.77 2.469 1.08 3.406.652.621-.283.643-.555.045-.555-.764 0-2.541-1.025-3.014-1.738-.846-1.277-.514-3.178.848-4.838.76-.928.682-1.006-.521-.523-1.531.613-2.625 2.963-2.162 4.645.248.895.166 1.088-.455 1.088-.428 0-.471-.098-.586-1.318-.506-5.379-1.619-9.311-3.822-13.5-3.908-7.434-11.174-12.896-19.373-14.564-10.287-2.092-20.338.514-28.029 7.266l-1.221 1.07-.293-.707-.594-1.432c-.381-.922-.834-1.424-1.285-1.424-.584 0-1.656 1.104-2.135 2.195-.596 1.367-.748 3.961-.314 5.437.168.574.275 1.074.238 1.113-.039.037-.672-.232-1.408-.602-2.01-1.004-3.326-1.381-4.867-1.395-1.18-.01-1.496.064-2.168.508-2.564 1.697-1.373 5.258 2.35 7.018.645.305 1.553.611 2.016.682.465.07.844.143.844.164s-.254.736-.564 1.59c-.66 1.812-1.318 4.988-1.502 7.234l-.127 1.582-1.59-.479c-.873-.262-1.697-.617-1.832-.789-.137-.174-.244-.855-.244-1.549 0-3.957-3.062-7.557-7.271-8.549-1.793-.424-34.344-.43-36.336-.008-3.994.846-6.92 3.988-7.371 7.916-.271 2.365-.232 5.154.094 6.695.738 3.48 3.383 6.062 7.238 7.068.992.258 3.525.299 18.359.299 15.18 0 17.334-.037 18.27-.313 2.697-.791 4.9-2.566 6.051-4.877.371-.744.691-1.387.713-1.426s.857-.236 1.855-.437c1-.201 2.014-.412 2.256-.469q.44-.103.439.168c0 .148.188.719.416 1.27l.414.998-1.049 1.137c-1.32 1.426-2.129 3.068-2.381 4.828-.26 1.816-.055 3.088.625 3.848.484.543.58.576 1.01.354.262-.135.699-.451.969-.703l.494-.459.68.922c.82 1.111 1.5 1.289 2.209.58.584-.584 1.301-2.471 1.301-3.426 0-.598.123-.822.701-1.285.613-.488.76-.529 1.145-.322.41.219.436.334.348 1.582-.297 4.152 1.898 7.354 4.219 6.154.814-.422 2.283-2.09 2.873-3.264.289-.578.551-1.078.58-1.111s1.107.162 2.397.434c2.853.603 6.147 1.021 9.473 1.207 1.699.094 2.469.207 2.406.354-.691 1.623-.607 2.486.271 2.852.553.228.961.207 2.225-.109.508-.127.508-.125.461.982-.039.918.021 1.162.344 1.404.52.389 1.639.234 2.852-.395m.811-3.729c-.703-.998-2.297-2.113-3.529-2.471-.625-.182-.816-.326-.742-.553.863-2.596 1.147-4.424.658-4.262-.258.084-1.098 1.664-1.893 3.559l-.475 1.135-2.553-.133c-13.203-.684-22.285-4.313-25.203-10.068-.853-1.686-.818-1.76 1.07-2.275 1.664-.453 2.539-1.061 2.539-1.76 0-1.26-1.949-2.512-3.719-2.389-1.131.078-1.08.268-.652-2.48.355-2.277.547-2.68 1.197-2.506.354.096.439.258.441.828.004 2.832 2.332 5.049 4.256 4.049 1.217-.635 2.176-2.336 2.184-3.873.004-.889.035-.939.834-1.346 2.853-1.453 4.74-3.84 5.537-7.004.395-1.568.289-3.475-.262-4.721l-.398-.9.885-.121c1.377-.189 4.996-.143 6.143.078.57.109 1.674.391 2.453.621 1.332.397 1.459.402 2.074.109.361-.172.971-.697 1.354-1.166.68-.828 1.893-3.049 1.893-3.463 0-.471.432-.156.713.516.834 1.996.789 4.096-.133 6.178-.447 1.012-.359 1.4.406 1.797.514.264.656.238 2.121-.389 2.51-1.074 4.016-1.473 5.57-1.473 1.223 0 1.467.061 1.836.451.529.564.549 1.471.051 2.437-.832 1.619-2.648 2.643-5.309 2.99-.904.119-1.707.277-1.787.35-.08.074.125.775.453 1.559.328.781.861 2.668 1.182 4.191.703 3.336 1.508 5.178 2.9 6.652 2.906 3.072 8.307 3.883 14.945 2.24 2.201-.545 5.188-1.662 6.268-2.348l.916-.582-.119.746c-.066.41-.434 1.377-.814 2.15-1.525 3.088-5.348 5.949-10.816 8.096-1.619.635-7.258 2.133-7.494 1.99-.08-.049-.147-.465-.147-.926 0-.877-.328-2.068-.568-2.068-.078 0-.299.67-.492 1.49-.414 1.752-1.801 4.629-2.6 5.395l-.561.537zm-18.289-13.479c.922-.455 1.699-1.019 2.221-1.611.84-.955.943-1.516.35-1.889-.283-.178-.5-.045-1.303.797-1.131 1.186-2.158 1.756-3.664 2.033-1.996.369-4.059-.416-5.492-2.092-.686-.803-.816-.877-1.188-.678-.23.123-.418.313-.418.42 0 .672 1.455 2.332 2.57 2.934 2.18 1.174 4.66 1.205 6.924.086m13.119-1.646c1.656-.844 2.107-2.369.955-3.225-.803-.596-3.211-.576-4.377.039-1.451.764-1.875 1.969-1.014 2.885.25.266.721.566 1.049.668.871.27 2.48.096 3.387-.367m-3.766-3.707c1.215-.553 1.984-1.313 2.561-2.525 1.273-2.684.303-6.047-2.129-7.379-.844-.461-1.252-.557-2.391-.557-1.17-.002-1.529.086-2.441.594-1.738.973-2.725 2.734-2.727 4.875-.004 2.484 1.465 4.43 3.904 5.174.885.271 2.422.184 3.223-.182m10.369-10.916c1.191-.617 2.068-1.699 1.996-2.459-.059-.602-.084-.617-1.152-.674-1.307-.068-2.734.414-4.406 1.492-.629.404-1.297.795-1.484.865-.502.191-.42.443.293.914.553.363.852.41 2.295.348 1.203-.053 1.881-.188 2.459-.486M96.919 122.41c-.668-.713-1.055-1.883-1.168-3.539l-.107-1.545.471.111c.258.061 1.303.43 2.324.82s1.973.748 2.117.797c.5.168-1.402 3.033-2.334 3.516-.719.371-.814.359-1.303-.16m44.982-5.437c-.379-.334-.689-.676-.689-.762s.451-.445 1.004-.799l1.004-.645.461.576c.557.691.754 1.238.529 1.463-.092.09-.492.301-.893.469-.717.299-.732.295-1.416-.303m-51.283-1.033c-.457-.434-2.178-1.281-2.867-1.41-.572-.107-.611-.158-.418-.537.232-.451 1.543-1.883 1.727-1.883.062 0 .842.717 1.732 1.592l1.621 1.594-.553.451c-.646.529-.853.561-1.242.193m-51.363-1.932c-2.395-.816-3.971-2.104-5.025-4.104-.537-1.016-.537-1.021-.537-5.123v-4.105l.643-1.305c.713-1.449 1.906-2.635 3.434-3.41 2.006-1.019 2.254-1.031 19.969-1.035 10.123-.002 16.832.07 17.48.191 1.619.299 3.729 1.426 4.68 2.494 1.365 1.535 1.814 2.734 1.934 5.162.057 1.15.191 2.17.299 2.266s1.273.512 2.592.924 2.328.812 2.246.891-1.117.332-2.299.563c-1.182.232-2.279.459-2.441.506-.162.045-.588.74-.949 1.545-.764 1.697-1.994 3.055-3.527 3.887-2.068 1.121-1.576 1.096-20.133 1.092l-17.09-.002zm25.746-5.508c.297-.375 2.188-5.451 2.188-5.869 0-.051-.26-.092-.578-.092-.545 0-.6.076-.977 1.34-.219.736-.398 1.439-.398 1.563 0 .641-.367.051-.801-1.291-.467-1.439-.521-1.518-1.115-1.574-.342-.035-.623-.018-.623.035s.35 1.047.779 2.209c.428 1.162.779 2.293.781 2.514.002.494-.352.869-.818.869-.344 0-.479.395-.221.65.33.33 1.416.115 1.783-.354m-26.176-1.287c.574-.201 1.215-.912 1.215-1.346 0-.352-.959-.221-1.367.188-.215.215-.523.391-.684.391-.563 0-1.074-.744-1.074-1.563 0-.869.52-1.563 1.17-1.563.215 0 .5.176.633.391.281.451 1.322.549 1.322.123 0-.516-.799-1.281-1.473-1.406-.928-.174-1.603.031-2.264.691-.471.473-.561.721-.561 1.563 0 1.252.428 2.104 1.232 2.455.764.332 1.078.344 1.85.076m5.213-.068c.84-.352 1.275-1.186 1.275-2.443 0-.797-.102-1.098-.537-1.586-.676-.756-1.84-.967-2.75-.496-1.762.912-1.783 3.586-.033 4.461.83.414 1.18.426 2.045.064m12.354-.107c1.266-.772.955-2.145-.58-2.557-1.166-.314-1.518-.533-1.389-.871.145-.375 1.123-.373 1.437.004.277.334 1.172.398 1.172.084 0-.484-.434-.947-1.09-1.164-1.73-.57-3.463.803-2.564 2.033.139.189.732.502 1.318.691.795.26 1.066.443 1.066.719 0 .49-1.211.654-1.389.188-.111-.285-1.443-.465-1.443-.193 0 .365.508.936 1.041 1.166.873.381 1.687.346 2.42-.1m3.721.082c.467-.195.746-.228.791-.098.037.113.334.205.66.205h.592l-.078-1.955c-.098-2.455-.365-2.83-2.019-2.83-.889 0-1.148.084-1.58.518-.285.283-.457.613-.383.732.193.313.869.264 1.223-.088.443-.443 1.313-.289 1.389.246.055.383-.051.445-.934.563-.549.072-1.213.303-1.477.512-.77.603-.561 1.93.361 2.301.592.238.641.236 1.455-.105m18.551-.379c.896-1.045.363-2.098-1.178-2.33-.912-.135-1.443-.523-1.221-.887.189-.305 1.193-.244 1.471.09s1.172.398 1.172.084c0-.812-1.287-1.496-2.4-1.273a2.54 2.54 0 0 0-1.057.543c-.906.85-.373 1.916 1.152 2.307 1.301.332 1.361.367 1.293.732-.088.455-1.178.568-1.52.156-.332-.398-1.375-.406-1.375-.008 0 .355.627.924 1.225 1.111.834.262 1.971.016 2.437-.525m-29.951-.981c.191-.805.416-1.422.504-1.367.086.053.309.717.494 1.477.334 1.359.346 1.377.938 1.318.582-.057.615-.115 1.238-2.207.354-1.182.645-2.215.648-2.295.002-.08-.248-.147-.559-.147-.537 0-.582.066-.9 1.367-.184.752-.402 1.367-.484 1.367s-.207-.281-.275-.625c-.373-1.869-.498-2.109-1.096-2.109-.496 0-.596.096-.76.732l-.426 1.611-.236.879-.264-1.172-.367-1.611c-.078-.334-.242-.439-.686-.439-.32 0-.582.066-.582.147s.273 1.135.607 2.344l.609 2.197h.625c.617 0 .631-.019.971-1.467m24.141-.031c0-1.652.279-2.213 1.104-2.213.379 0 .459-.102.459-.586 0-.699-.32-.754-1.049-.182-.426.336-.514.354-.514.098 0-.211-.184-.307-.586-.307h-.586v4.687h1.172zm-2.148-.943c0-.475-.039-.488-1.367-.488s-1.367.014-1.367.488.039.488 1.367.488 1.367-.014 1.367-.488m75.266 8.621-.537-.463.723-.842c.397-.465.721-.916.721-1.004s.08-.16.178-.16c.188 0 1.385 1.715 1.385 1.982 0 .172-1.426.947-1.738.947-.107 0-.436-.207-.73-.461m-13.742-5.127c-2.627-.318-4.908-1.369-6.137-2.826-.785-.93-1.41-2.354-1.793-4.082-.33-1.492-1.145-4.84-1.359-5.592-.105-.371-.016-.426.889-.545 1.445-.193 2.967-.93 4.09-1.979 1.234-1.154 1.772-2.244 1.772-3.59 0-2.1-1.092-2.947-3.791-2.947-1.723 0-4.006.566-5.652 1.404-.412.209-.783.35-.82.311-.039-.039.074-.463.254-.941.223-.603.322-1.484.32-2.873-.002-1.102.025-2.002.061-2.002.037 0 1.053.496 2.26 1.102s2.672 1.266 3.256 1.467c4.437 1.529 8.801-.615 8.801-4.324 0-.539.055-.979.121-.979.193 0 2.459 1.654 3.602 2.629.977.834 2.902 2.984 2.912 3.256.004.066-.275.238-.619.381-1.516.629-2.939 2.451-3.412 4.373-.566 2.291.172 4.336 2.365 6.555 1.473 1.49 2.822 2.166 4.576 2.291 1.064.076 1.508.014 2.246-.313.666-.295.941-.342.996-.17.172.557.494 3.363.494 4.309 0 .902-.068 1.08-.549 1.436-1.658 1.227-5.752 2.758-8.729 3.266-1.891.322-5.043.518-6.152.385m2.281-4.748c1.174-.869 1.543-2.678.861-4.221-1.127-2.549-3.064-3.611-4.949-2.713-2.492 1.189-2.061 5.709.676 7.1 1.082.551 2.539.479 3.412-.166m-42.564-5.305c-.402-.234-.475-1.531-.107-1.898.338-.338.828-.289 1.201.123.404.447.41.992.018 1.553-.332.475-.59.525-1.111.223m-1.774-7.324c-1.43-.971-2.711-1.447-3.896-1.449-1.053-.002-1.15.039-1.496.605-.355.584-.377.592-.584.209-.387-.727-.256-1.535.324-1.994.473-.375.713-.416 2.002-.336 1.234.074 1.779.234 3.467 1.023 1.102.516 2.002 1.016 2.002 1.111 0 .217-.811 1.332-.969 1.332-.061 0-.445-.227-.85-.502m3.27-3.914c-.41-1.408-.299-3.342.266-4.621.428-.963.754-1.164.949-.582.398 1.193 1.289 2.785 1.889 3.377l.701.691-1.598 1.066c-.879.586-1.662 1.094-1.74 1.129-.078.033-.289-.443-.467-1.061m4.586-2.217-.471-.4.512-.437c.281-.242.984-.846 1.563-1.34 3.418-2.932 8.953-5.613 13.014-6.307l.635-.107v1.045c0 1.432.406 2.283 1.559 3.277.539.465.981.957.981 1.098 0 .465-.617 1.457-1.484 2.385l-.857.916-1.578-.457c-4.211-1.219-8.922-.99-13.172.641-.125.049-.439-.092-.699-.313m14.414 17.984c1.838-1.17 2.475-4.092 1.393-6.393-.43-.914-.77-1.273-1.629-1.721l-.586-.307h1.035c1.162-.002 1.848.289 2.605 1.104.914.986 1.23 1.816 1.227 3.217-.01 2.451-1.477 4.232-3.633 4.412l-1.039.088zm-3.332-4.678c-.178-.195-.322-.527-.322-.738 0-.547.547-1.248.975-1.248.896 0 1.322 1.385.621 2.021-.465.42-.871.408-1.273-.035m-66.729 7.974c-.801-.801-.316-2.734.684-2.734.615 0 1.074.687 1.074 1.605 0 .775-.525 1.52-1.074 1.52-.16 0-.469-.176-.684-.391m16.846.262c-.479-.193-.258-.805.371-1.023.92-.32 1.143-.27 1.143.266 0 .67-.772 1.057-1.514.758" fill="rgba(255,255,255,0)"/>
</svg>
